<?xml version="1.0" standalone="no"?>
<!DOCTYPE svg PUBLIC "-//W3C//DTD SVG 20010904//EN"
 "http://www.w3.org/TR/2001/REC-SVG-20010904/DTD/svg10.dtd">
<svg version="1.0" xmlns="http://www.w3.org/2000/svg"
 width="200.000000pt" height="200.000000pt" viewBox="0 0 200.000000 200.000000"
 preserveAspectRatio="xMidYMid meet">
<metadata>
Created by potrace 1.11, written by Peter Selinger 2001-2013
</metadata>
<g transform="translate(0.000000,200.000000) scale(0.100000,-0.100000)"
fill="#000000" stroke="none">
<path d="M863 1705 c-214 -58 -356 -243 -356 -465 0 -97 18 -166 62 -244 32
-56 113 -138 171 -173 47 -28 152 -63 191 -63 32 0 32 0 26 -42 -39 -294 -50
-418 -39 -442 25 -56 95 -58 134 -5 19 25 19 28 -9 247 -16 123 -26 227 -23
231 3 5 29 12 58 16 78 10 185 68 251 134 258 259 148 691 -203 800 -80 25
-185 27 -263 6z m257 -61 c68 -20 163 -87 205 -144 101 -137 117 -298 44 -448
l-32 -67 -8 54 c-4 29 -14 72 -23 96 -15 38 -15 47 -1 101 27 103 14 163 -47
230 -111 121 -354 109 -483 -24 -22 -23 -68 -55 -102 -72 -34 -17 -74 -45 -88
-62 l-27 -31 7 39 c10 60 58 157 101 204 117 129 283 175 454 124z m40 -179
c60 -30 100 -88 100 -144 0 -64 -9 -65 -68 -6 -75 74 -144 105 -250 112 -93 7
-95 15 -10 45 66 23 176 20 228 -7z m-72 -155 c12 -11 25 -20 31 -20 11 0 74
-75 71 -85 -1 -4 4 -11 11 -15 29 -18 -60 -72 -120 -73 -50 -1 -144 30 -135
44 3 5 -4 9 -15 9 -11 0 -22 4 -25 8 -3 5 8 8 24 7 16 -1 27 2 24 7 -3 4 0 8
6 8 7 0 24 9 40 20 15 11 31 16 35 12 5 -4 5 -2 1 5 -4 7 0 26 9 43 9 17 13
35 10 40 -11 17 10 11 33 -10z m-406 -65 c-9 -122 38 -265 117 -355 22 -25 38
-46 36 -48 -9 -9 -105 58 -150 103 -120 123 -137 246 -44 329 21 20 41 36 43
36 2 0 1 -29 -2 -65z m148 -78 c106 -118 289 -149 394 -66 l26 20 10 -26 c20
-52 12 -128 -17 -173 -53 -81 -183 -117 -278 -78 -148 62 -251 263 -218 427
l6 33 16 -43 c9 -24 36 -67 61 -94z"/>
</g>
</svg>
